#N canvas 0 22 526 336 12;
#X msg 20 198 1e+10;
#X obj 317 160 s \$1;
#X obj 20 278 text set \$2;
#X obj 130 34 r \$4;
#X obj 318 108 list prepend \$3;
#X obj 139 229 list prepend \$4-set;
#X obj 21 122 symbol \$4-set;
#X obj 21 148 text search \$2;
#X obj 21 174 sel -1;
#X obj 20 250 list;
#X obj 317 134 list trim;
#X obj 139 130 route float symbol;
#X obj 20 224 t b f;
#X obj 162 194 list prepend symbol;
#X obj 139 166 list prepend float;
#X obj 130 78 t b a a;
#X connect 0 0 12 0;
#X connect 3 0 15 0;
#X connect 4 0 10 0;
#X connect 5 0 9 1;
#X connect 6 0 7 0;
#X connect 7 0 8 0;
#X connect 8 0 0 0;
#X connect 8 1 12 0;
#X connect 9 0 2 0;
#X connect 10 0 1 0;
#X connect 11 0 14 0;
#X connect 11 1 13 0;
#X connect 12 0 9 0;
#X connect 12 1 2 1;
#X connect 13 0 5 0;
#X connect 14 0 5 0;
#X connect 15 0 6 0;
#X connect 15 1 11 0;
#X connect 15 2 4 0;
