#N canvas 0 22 969 482 12;
#X obj 93 163 symbol;
#X obj 176 163 symbol;
#X obj 92 214 s \$1-server;
#X obj 175 214 s \$1-call-name;
#X obj 280 214 s \$1-onoff;
#X obj 440 215 s \$1-nchan;
#X obj 520 216 s \$1-2x;
#X obj 597 214 s \$1-fifo-size;
#X obj 40 439 outlet;
#X obj 710 14 quack.get \$1 \$2 server-answered;
#X obj 710 40 quack.get \$1 \$2 connected;
#X obj 710 66 quack.get \$1 \$2 packets-in;
#X obj 710 92 quack.get \$1 \$2 calling;
#X obj 710 118 quack.get \$1 \$2 remote-mbits;
#X obj 710 144 quack.get \$1 \$2 local-mbits;
#X obj 710 170 quack.get \$1 \$2 dropouts;
#X obj 710 196 quack.get \$1 \$2 local-sr;
#X obj 710 222 quack.get \$1 \$2 nfill;
#X obj 710 248 quack.get \$1 \$2 local-ch;
#X obj 710 274 quack.get \$1 \$2 local-blk;
#X obj 710 300 quack.get \$1 \$2 remote-sr;
#X obj 24 19 r quack-\$2-in;
#X obj 38 324 sel 1 0;
#X msg 153 406 off;
#X obj 39 380 pack 0 s s f;
#X msg 39 405 peer \$2 \$4 \$3;
#X obj 24 294 r \$1-onoff;
#X obj 72 350 r \$1-server;
#X obj 159 349 r \$1-call-name;
#X obj 21 110 route port;
#X obj 121 83 route server call-name onoff block nchan 2x fifo;
#X obj 365 278 loadbang;
#X msg 365 304 port 3840;
#X obj 365 330 s quack-\$2-in;
#X symbolatom 93 189 10 0 0 0 - - -;
#X symbolatom 176 189 10 0 0 0 - - -;
#X floatatom 272 170 5 0 0 0 - - -;
#X floatatom 317 173 5 0 0 0 - - -;
#X floatatom 398 166 5 0 0 0 - - -;
#X floatatom 443 169 5 0 0 0 - - -;
#X floatatom 519 165 5 0 0 0 - - -;
#X floatatom 564 168 5 0 0 0 - - -;
#X obj 388 252 s \$1-blksel-set;
#X connect 0 0 2 0;
#X connect 0 0 34 0;
#X connect 1 0 3 0;
#X connect 1 0 35 0;
#X connect 21 0 29 0;
#X connect 22 0 24 0;
#X connect 22 1 23 0;
#X connect 23 0 8 0;
#X connect 24 0 25 0;
#X connect 25 0 8 0;
#X connect 26 0 22 0;
#X connect 27 0 24 1;
#X connect 28 0 24 2;
#X connect 29 0 24 3;
#X connect 29 1 30 0;
#X connect 30 0 0 0;
#X connect 30 1 1 0;
#X connect 30 2 4 0;
#X connect 30 2 36 0;
#X connect 30 3 37 0;
#X connect 30 3 42 0;
#X connect 30 4 5 0;
#X connect 30 4 38 0;
#X connect 30 5 6 0;
#X connect 30 5 39 0;
#X connect 30 6 7 0;
#X connect 30 6 40 0;
#X connect 30 7 41 0;
#X connect 31 0 32 0;
#X connect 32 0 33 0;
