#N canvas 2 0 450 300 12;
#X obj 64 91 t b a;
#X msg 64 117 line 0 \, auto;
#X obj 64 62 inlet;
#X obj 64 195 outlet;
#X obj 64 169 list;
#X obj 64 143 text sequence \$1;
#X connect 0 0 1 0;
#X connect 0 1 4 1;
#X connect 1 0 5 0;
#X connect 2 0 0 0;
#X connect 4 0 3 0;
#X connect 5 0 4 0;
