#N canvas 120 69 823 542 12;
#X declare -path lib;
#X obj 31 13 declare -path lib;
#X obj 30 126 quack-panel \$1;
#X obj 34 72 adc~ \$2 \$3;
#X obj 34 470 dac~ \$4 \$5;
#X text 356 14 \$1 = instance number;
#X text 356 34 \$2-\$3 = adc channels;
#X text 356 54 \$4-\$5 = dac channels;
#X obj 368 387 route status found;
#X obj 294 506 s status-\$1-set;
#X obj 359 205 param.set quack-panel-\$1 names fifo call-\$1-fifo;
#X obj 359 225 param.set quack-panel-\$1 names block block-\$1;
#X obj 359 245 param.set quack-panel-\$1 names nchan nchan-\$1;
#X obj 359 265 param.set quack-panel-\$1 names 2x 2x-\$1;
#X obj 598 293 loadbang;
#X obj 598 319 f \$1;
#X obj 633 387 - 1;
#X obj 598 345 t f f;
#X obj 593 429 text set size;
#X obj 550 18 r call-\$1-onoff;
#X msg 550 84 onoff \$1;
#X obj 550 110 s quack-panel-\$1;
#X obj 435 418 s call-\$1-found-set;
#X obj 550 51 pipe 100;
#X obj 682 30 loadbang;
#X obj 628 51 + 50;
#X obj 682 56 random 150;
#X obj 345 420 t a a;
#X obj 460 456 list prepend;
#X obj 591 466 r call-name-\$1;
#X obj 417 503 print status;
#X obj 394 447 change;
#X obj 438 479 list trim;
#X obj 359 143 param.set quack-panel-\$1 names server server symbol
;
#X obj 359 163 param.set quack-panel-\$1 names call-name call-name-\$1
symbol;
#X connect 1 0 3 0;
#X connect 1 1 3 1;
#X connect 1 2 7 0;
#X connect 2 0 1 0;
#X connect 2 1 1 1;
#X connect 7 0 26 0;
#X connect 7 1 21 0;
#X connect 13 0 14 0;
#X connect 14 0 16 0;
#X connect 15 0 17 1;
#X connect 16 0 17 0;
#X connect 16 1 15 0;
#X connect 18 0 22 0;
#X connect 19 0 20 0;
#X connect 22 0 19 0;
#X connect 23 0 25 0;
#X connect 24 0 22 1;
#X connect 25 0 24 0;
#X connect 26 0 8 0;
#X connect 26 1 30 0;
#X connect 27 0 31 0;
#X connect 28 0 27 1;
#X connect 30 0 27 0;
#X connect 31 0 29 0;
