#N canvas 110 176 797 542 12;
#X declare -path lib;
#X obj 30 23 declare -path lib;
#X obj 30 126 quack-panel \$1;
#X obj 30 92 adc~ \$2 \$3;
#X text 538 33 \$1 = instance number;
#N canvas 0 22 450 300 onoff 0;
#X obj 26 87 r call-\$1-onoff;
#X msg 26 218 onoff \$1;
#X obj 26 254 s quack-panel-\$1;
#X obj 26 120 pipe 100;
#X obj 218 20 loadbang;
#X obj 218 99 + 50;
#X obj 218 46 random 150;
#X obj 28 17 r onoff;
#X obj 28 46 s call-\$1-onoff-set;
#X obj 164 190 sel 1;
#X obj 164 251 s call-name-\$1-set;
#X obj 26 169 t f f;
#X connect 0 0 3 0;
#X connect 1 0 2 0;
#X connect 3 0 11 0;
#X connect 4 0 6 0;
#X connect 5 0 3 1;
#X connect 6 0 5 0;
#X connect 7 0 8 0;
#X connect 9 0 10 0;
#X connect 11 0 1 0;
#X connect 11 1 9 0;
#X restore 359 375 pd onoff;
#N canvas 0 22 450 300 status 0;
#X obj 57 51 route status found;
#X obj 57 242 s status-\$1-set;
#X obj 118 82 s call-\$1-found-set;
#X obj 57 104 t a a;
#X obj 195 158 list prepend;
#X obj 276 124 r call-name-\$1;
#X obj 195 221 print status;
#X obj 195 125 change;
#X obj 195 185 list trim;
#X obj 57 19 inlet;
#X connect 0 0 3 0;
#X connect 0 1 2 0;
#X connect 3 0 1 0;
#X connect 3 1 7 0;
#X connect 4 0 8 0;
#X connect 5 0 4 1;
#X connect 7 0 4 0;
#X connect 8 0 6 0;
#X connect 9 0 0 0;
#X restore 323 457 pd status;
#X text 538 53 \$2-\$3 = adc/dac channels;
#X obj 30 440 dac~ \$2 \$3;
#X obj 359 125 param.set quack-panel-\$1 names port port;
#X obj 359 153 param.set quack-panel-\$1 names server server symbol
;
#X obj 359 183 param.set quack-panel-\$1 names call-name call-name-\$1
symbol;
#X obj 359 213 param.set quack-panel-\$1 names fifo call-\$1-fifo;
#X obj 359 243 param.set quack-panel-\$1 names block block-\$1;
#X obj 359 273 param.set quack-panel-\$1 names nchan nchan-\$1;
#X obj 359 303 param.set quack-panel-\$1 names 2x 2x-\$1;
#X text 211 20 quack-panel wrapper;
#X text 472 393 NOTE: quack-panel needs;
#X text 502 415 on-off fix;
#X text 501 435 fifo and port route methods;
#X text 500 457 new outlet to report status/found;
#X connect 1 0 7 0;
#X connect 1 1 7 1;
#X connect 1 2 5 0;
#X connect 2 0 1 0;
#X connect 2 1 1 1;
