#N canvas 0 22 450 300 12;
#X obj 260 176 r test;
#X obj 260 202 switch~;
#X obj 62 33 loadbang;
#X obj 62 59 f \$1;
#X obj 62 85 * 0.5;
#X obj 63 138 osc~;
#X obj 63 226 dac~ \$1 \$2;
#X obj 133 138 osc~;
#X obj 131 108 * 2;
#X obj 62 111 * 880;
#X obj 63 175 *~ 0.03;
#X obj 133 175 *~ 0.02;
#X connect 0 0 1 0;
#X connect 2 0 3 0;
#X connect 3 0 4 0;
#X connect 4 0 9 0;
#X connect 5 0 10 0;
#X connect 7 0 11 0;
#X connect 8 0 7 0;
#X connect 9 0 5 0;
#X connect 9 0 8 0;
#X connect 10 0 6 0;
#X connect 11 0 6 1;
