#N canvas 76 202 450 300 12;
#X obj 260 176 r test;
#X obj 260 202 switch~;
#X obj 61 9 loadbang;
#X obj 63 138 osc~;
#X obj 63 175 *~ 0.03;
#X obj 62 111 mtof;
#X obj 123 138 osc~;
#X obj 123 175 *~ 0.03;
#X obj 122 111 mtof;
#X obj 61 60 t f f;
#X obj 61 35 f \$1;
#X obj 63 226 dac~ \$2 \$3;
#X obj 117 39 + 1;
#X msg 232 43 2 \$1;
#X obj 232 69 pow;
#X msg 300 44 2 \$1;
#X obj 300 70 pow;
#X obj 62 85 + 60;
#X obj 120 84 + 60;
#X obj 203 131 phasor~ -1;
#X obj 338 30 loadbang;
#X obj 211 154 phasor~ -1;
#X obj 63 156 *~;
#X obj 123 156 *~;
#X obj 142 143 lop~ 100;
#X obj 173 204 lop~ 100;
#X obj 148 14 bng 15 250 50 0 empty empty empty 17 7 0 10 -262144 -1
-1;
#X obj 232 95 * 0.5;
#X obj 300 96 * 0.5;
#X obj 328 97 random 100;
#X obj 323 130 / 100;
#X obj 323 156 + 0.5;
#X obj 323 182 wrap;
#X connect 0 0 1 0;
#X connect 2 0 10 0;
#X connect 3 0 22 0;
#X connect 4 0 11 0;
#X connect 5 0 3 0;
#X connect 6 0 23 0;
#X connect 7 0 11 1;
#X connect 8 0 6 0;
#X connect 9 0 15 0;
#X connect 9 1 12 0;
#X connect 10 0 9 0;
#X connect 12 0 13 0;
#X connect 13 0 14 0;
#X connect 14 0 27 0;
#X connect 15 0 16 0;
#X connect 16 0 28 0;
#X connect 17 0 5 0;
#X connect 18 0 8 0;
#X connect 19 0 24 0;
#X connect 20 0 29 0;
#X connect 21 0 25 0;
#X connect 22 0 4 0;
#X connect 23 0 7 0;
#X connect 24 0 22 1;
#X connect 25 0 23 1;
#X connect 26 0 10 0;
#X connect 27 0 18 0;
#X connect 28 0 17 0;
#X connect 29 0 30 0;
#X connect 30 0 31 0;
#X connect 30 0 19 1;
#X connect 31 0 32 0;
#X connect 32 0 21 1;
