#N canvas 35 3 1245 692 12;
#X declare -path quacktrip~ -path lib -path conniption;
#X obj 368 203 quacktrip~;
#X obj 456 321 change;
#X obj 367 504 outlet~;
#X obj 427 505 outlet~;
#X obj 382 161 inlet~;
#X obj 435 163 inlet~;
#X obj 35 83 tgl 15 0 \$0-onoff \$0-onoff-set empty 17 7 0 10 -262144
-1 -1 0 1;
#X text 54 81 ON/OFF;
#X obj 94 233 tgl 15 0 \$0-connected \$0-connected-set empty 17 7 0
10 -262144 -1 -1 0 1;
#X text 22 231 connected;
#X text 136 231 packets in;
#X floatatom 215 232 7 0 0 0 - #0-packets-in-set #0-packets-in;
#X floatatom 215 253 5 0 0 0 - #0-dropouts-set #0-dropouts;
#X text 148 252 dropouts;
#X obj 1035 62 setctl \$0-onoff;
#X floatatom 74 250 5 0 0 0 - #0-nfill-set #0-nfill;
#X text 32 251 fill;
#X text 27 157 server;
#X symbolatom 81 158 32 0 0 0 - #0-server-set #0-server;
#X symbolatom 95 138 30 0 0 0 - #0-call-name-set #0-call-name;
#X text 24 138 call name;
#X text 22 209 calling;
#X obj 80 213 bng 15 250 50 0 empty \$0-calling empty 17 7 0 10 -262144
-1 -1;
#X floatatom 112 108 5 3 100 0 - #0-fifo-size-set #0-fifo-size;
#X obj 1035 109 setctl \$0-server;
#X obj 134 363 loadbang;
#X obj 68 363 f \$0;
#X obj 111 365 bng 15 250 50 0 empty empty empty 17 7 0 10 -262144
-1 -1;
#X obj 1034 133 setctl \$0-call-name;
#X obj 1035 86 setctl \$0-fifo-size;
#X obj 560 90 sel 1 0;
#X obj 594 116 r \$0-server;
#X obj 681 115 r \$0-call-name;
#X obj 723 307 b;
#X obj 726 377 f;
#X obj 758 378 + 1;
#X obj 255 255 bng 15 250 50 0 empty empty empty 17 7 0 10 -262144
-1 -1;
#X text 272 252 reset;
#X msg 673 307 0;
#X obj 633 350 b;
#X obj 633 375 f;
#X obj 661 376 + 1;
#X obj 633 404 speedlim 100;
#X obj 727 23 declare -path quacktrip~ -path lib -path conniption;
#X obj 762 285 s \$0-calling;
#X msg 675 172 off;
#X obj 633 431 s \$0-packets-in-set;
#X obj 726 404 s \$0-dropouts-set;
#X obj 436 562 s \$0-nfill-set;
#X obj 881 292 s \$0-connected-set;
#X obj 27 533 r quack-panel-\$1;
#X obj 1028 321 print quack-panel-\$1;
#X obj 30 585 symbol;
#X obj 30 610 s \$0-server;
#X obj 113 585 symbol;
#X obj 113 610 s \$0-call-name;
#X obj 872 344 sel 0;
#X obj 872 369 0;
#X obj 872 394 s \$0-fill-set;
#X obj 117 213 bng 15 250 50 0 empty \$0-server-answered empty 17 7
0 10 -262144 -1 -1;
#X obj 783 316 s \$0-server-answered;
#X obj 721 148 r \$0-fifo-size;
#X msg 721 173 nbuf \$1;
#X obj 587 511 s \$0-remote-sr-set;
#X obj 544 511 t b f;
#X obj 545 539 samplerate~;
#X obj 545 564 s \$0-local-sr-set;
#X floatatom 71 330 5 0 0 0 - #0-remote-sr-set #0-remote-sr;
#X floatatom 71 309 5 0 0 0 - #0-local-sr-set #0-local-sr;
#X obj 609 316 route 0;
#N canvas 126 330 826 670 latency-testing 0;
#N canvas 0 22 450 300 (subpatch) 0;
#X array \$0-pulse 120 float 3;
#A 0 0 0 0 0 0 0 0 0 0 0 -0 -6.19458e-05 -0.000494103 -0.00165937 -0.00390618
-0.00756153 -0.0129244 -0.0202596 -0.0297923 -0.0417031 -0.0561239
-0.0731343 -0.0927595 -0.114969 -0.139674 -0.166732 -0.195943 -0.227055
-0.259767 -0.293732 -0.328561 -0.363831 -0.39909 -0.433862 -0.467657
-0.499977 -0.530324 -0.558209 -0.583156 -0.604713 -0.622461 -0.636015
-0.645036 -0.649234 -0.648374 -0.642282 -0.630843 -0.614012 -0.591808
-0.564318 -0.531698 -0.494168 -0.452014 -0.405579 -0.355267 -0.301528
-0.244862 -0.185805 -0.124926 -0.0628189 -9.26574e-05 0.0626345 0.124745
0.185628 0.244691 0.301365 0.355113 0.405437 0.451883 0.494051 0.531595
0.56423 0.591735 0.613955 0.630802 0.642256 0.648364 0.649239 0.645055
0.636048 0.622507 0.604771 0.583224 0.558287 0.53041 0.500069 0.467754
0.433963 0.399193 0.363935 0.328665 0.293834 0.259866 0.22715 0.196032
0.166815 0.139751 0.115038 0.0928211 0.0731882 0.0561701 0.0417419
0.0298239 0.0202844 0.012943 0.00757468 0.00391473 0.00166424 0.000496283
6.24961e-05 0 0 0 0 0 0 0 0 0 0;
#X coords 0 1 119 -1 200 140 1;
#X restore 17 257 graph;
#X obj 38 447 t b b;
#X obj 109 508 f;
#X obj 147 508 + 1;
#X obj 38 476 until;
#X obj 109 536 t f f;
#X obj 30 619 tabwrite pulse;
#X obj 36 423 bng 15 250 50 0 empty empty empty 17 7 0 10 -262144 -1
-1;
#X msg 129 430 \; pulse const 0;
#X msg 126 480 0;
#X obj 26 536 sel 100;
#X obj 141 619 + 10;
#X obj 33 567 * 0.06283;
#X obj 505 204 metro 1000;
#X obj 504 178 tgl 15 0 empty empty empty 17 7 0 10 -262144 -1 -1 0
1;
#X obj 369 157 vline~;
#X obj 294 297 *~ 1e+10;
#X obj 294 324 clip~ 0 1;
#X obj 294 348 *~ 1e+10;
#X obj 295 384 lop~ 3;
#X obj 296 408 clip~ 0 1;
#X msg 501 354 clear;
#X msg 370 126 0 \, 12000 10;
#X obj 679 208 osc~ 220;
#X obj 618 248 *~ 0.03;
#X obj 69 85 bp~ 220 0.7;
#X obj 582 252 +~;
#X obj 68 109 rzero~ -1;
#X obj 69 134 rzero~ -1;
#X obj 69 160 *~ 0.15;
#X obj 293 109 rzero~ 1;
#X obj 294 134 rzero~ 1;
#X obj 30 592 expr -0.5 * (1-cos($f1)) * sin($f1);
#X obj 294 85 bp~ 2000 0.7;
#X obj 296 246 *~ 20;
#X obj 369 213 *~ 0.1;
#X obj 180 82 env~ 65536;
#X floatatom 180 109 4 0 0 0 - - -;
#X obj 69 187 bonk~;
#X obj 69 212 bng 15 250 50 0 empty empty empty 17 7 0 10 -262144 -1
-1;
#X obj 295 270 -~ 0.1;
#X obj 297 437 -~ 1;
#X obj 297 464 *~ -1;
#X obj 325 514 phasor~;
#X msg 487 447 0;
#X obj 469 523 del 800;
#X obj 323 554 snapshot~;
#X floatatom 323 605 6 0 0 0 - - -;
#X obj 324 582 * 1000;
#X obj 386 600 s latency;
#X obj 112 214 s discontinuity;
#X obj 367 297 *~ 1e+10;
#X obj 367 324 clip~ 0 1;
#X obj 367 348 *~ 1e+10;
#X obj 368 384 lop~ 3;
#X obj 369 408 clip~ 0 1;
#X obj 368 270 -~ 0.1;
#X obj 368 246 *~ 20;
#X obj 324 490 *~;
#X obj 581 277 outlet~;
#X obj 659 130 switch~;
#X obj 444 30 r~ \$0-loopback;
#X obj 659 44 vradio 15 1 0 3 empty empty empty 0 -8 0 10 -262144 -1
-1 2;
#X floatatom 673 98 5 0 0 0 - - -;
#X text 680 41 off;
#X obj 504 153 == 1;
#X text 680 57 measure latency;
#X text 681 71 loop-back;
#X obj 619 170 tgl 15 0 empty empty empty 17 7 0 10 -262144 -1 -1 0
1;
#X obj 619 145 == 2;
#X obj 583 172 *~ 0;
#X obj 571 82 writesf~;
#X msg 564 9 open /tmp/foo.wav \, start;
#X msg 584 39 stop;
#X obj 618 207 * 0.03;
#X obj 368 188 tabread4~ \$0-pulse;
#X connect 1 0 4 0;
#X connect 1 1 9 0;
#X connect 1 1 8 0;
#X connect 2 0 3 0;
#X connect 2 0 5 0;
#X connect 2 0 10 0;
#X connect 3 0 2 1;
#X connect 4 0 2 0;
#X connect 5 0 12 0;
#X connect 5 1 11 0;
#X connect 7 0 1 0;
#X connect 9 0 2 1;
#X connect 10 0 4 1;
#X connect 11 0 6 1;
#X connect 12 0 32 0;
#X connect 13 0 22 0;
#X connect 13 0 21 0;
#X connect 13 0 44 0;
#X connect 13 0 45 0;
#X connect 14 0 13 0;
#X connect 14 0 74 0;
#X connect 15 0 75 0;
#X connect 16 0 17 0;
#X connect 17 0 18 0;
#X connect 18 0 19 0;
#X connect 19 0 20 0;
#X connect 20 0 41 0;
#X connect 21 0 19 0;
#X connect 22 0 15 0;
#X connect 23 0 24 0;
#X connect 24 0 26 1;
#X connect 25 0 27 0;
#X connect 26 0 59 0;
#X connect 27 0 28 0;
#X connect 28 0 29 0;
#X connect 29 0 38 0;
#X connect 30 0 31 0;
#X connect 31 0 34 0;
#X connect 32 0 6 0;
#X connect 33 0 30 0;
#X connect 34 0 40 0;
#X connect 35 0 26 0;
#X connect 35 0 57 0;
#X connect 36 0 37 0;
#X connect 38 0 39 0;
#X connect 38 0 50 0;
#X connect 40 0 16 0;
#X connect 41 0 42 0;
#X connect 42 0 58 0;
#X connect 43 0 46 0;
#X connect 44 0 43 1;
#X connect 45 0 46 0;
#X connect 46 0 48 0;
#X connect 48 0 47 0;
#X connect 48 0 49 0;
#X connect 51 0 52 0;
#X connect 52 0 53 0;
#X connect 53 0 54 0;
#X connect 54 0 55 0;
#X connect 55 0 58 1;
#X connect 56 0 51 0;
#X connect 57 0 56 0;
#X connect 58 0 43 0;
#X connect 61 0 36 0;
#X connect 61 0 33 0;
#X connect 61 0 25 0;
#X connect 61 0 70 0;
#X connect 61 0 71 0;
#X connect 62 0 63 0;
#X connect 62 0 60 0;
#X connect 62 0 65 0;
#X connect 62 0 69 0;
#X connect 65 0 14 0;
#X connect 68 0 70 1;
#X connect 69 0 68 0;
#X connect 70 0 26 0;
#X connect 72 0 71 0;
#X connect 73 0 71 0;
#X connect 74 0 24 1;
#X connect 75 0 35 0;
#X restore 366 118 pd latency-testing;
#X obj 412 243 s~ \$0-loopback;
#X obj 456 398 line~;
#X obj 416 476 rpole~;
#X obj 456 346 sel 1 0;
#X obj 416 440 *~;
#X obj 456 423 *~ -1;
#X obj 456 447 +~ 1;
#X obj 456 371 1 5;
#X obj 485 371 0.0005;
#X obj 367 476 rpole~;
#X obj 367 439 *~;
#X msg 335 68 block \$1;
#X obj 236 87 vradio 15 1 0 3 \$0-blksel \$0-blksel-set empty 0 -8
0 10 -262144 -1 -1 1;
#X text 255 83 64;
#X text 253 100 128;
#X text 254 114 256;
#X floatatom 133 309 3 0 0 0 - #0-local-ch-set #0-local-ch;
#X floatatom 133 330 3 0 0 0 - #0-remote-ch-set #0-remote-ch;
#X floatatom 184 309 3 0 0 0 - #0-local-blk-set #0-local-blk;
#X floatatom 184 330 3 0 0 0 - #0-remote-blk-set #0-remote-blk;
#X obj 189 87 vradio 15 1 0 3 \$0-nchan \$0-nchan-set empty 0 -8 0
10 -262144 -1 -1 2;
#X text 206 84 0;
#X text 207 99 1;
#X text 207 114 2;
#X text 183 66 chnls;
#X obj 1034 156 setctl \$0-call-name;
#X text 136 209 found server;
#X obj 722 510 t b f;
#X obj 540 462 unpack 0 0 0 0 0;
#X obj 765 510 s \$0-remote-ch-set;
#X obj 723 563 s \$0-local-ch-set;
#X obj 1033 202 setctl \$0-blksel;
#X obj 901 510 t b f;
#X obj 1095 504 r \$0-blksel;
#X obj 1095 529 sel 0 1;
#X msg 1095 554 64;
#X msg 1125 554 128;
#X msg 1155 554 256;
#X obj 945 510 s \$0-remote-blk-set;
#X obj 902 563 s \$0-local-blk-set;
#X msg 420 70 nchan \$1;
#X obj 302 611 s \$0-block;
#X obj 378 611 s \$0-nchan;
#X obj 335 42 r \$0-block;
#X obj 1095 579 s \$0-block;
#X obj 1033 180 setctl \$0-nchan;
#X obj 560 63 r \$0-onoff;
#X obj 902 539 v \$0-block;
#X obj 420 44 r \$0-nchan;
#X obj 723 538 v \$0-nchan;
#X msg 532 39 repeat \$1;
#X text 40 308 out;
#X text 45 331 in;
#X text 68 275 sample rate, f 6;
#X text 178 276 block size, f 5;
#X text 116 288 channels;
#X floatatom 231 309 5 0 0 0 - #0-local-mbits-set #0-local-mbits;
#X text 225 273 mbits per sec, f 7;
#X obj 696 593 expr $f1*$f2*$f3;
#X text 237 67 block size;
#X obj 292 116 tgl 15 0 \$0-2x \$0-2x-set empty 17 7 0 10 -262144 -1
-1 0 1;
#X text 289 95 2X;
#X obj 1032 226 setctl \$0-2x;
#X obj 458 612 s \$0-2x;
#X floatatom 231 330 5 0 0 0 - #0-remote-mbits-set #0-remote-mbits
;
#X obj 521 239 route got-packet drop late miss request-call no-peer-yet
running bw, f 68;
#X obj 1000 322 unpack;
#X obj 1041 367 s \$0-local-mbits-set;
#X obj 1000 407 s \$0-remote-mbits-set;
#X obj 530 15 r \$0-2x;
#X text 36 191 ------ readouts (not settable): -------;
#X text 41 107 FIFO size;
#X obj 218 610 s \$0-onoff;
#X obj 535 610 s \$0-fifo-size;
#X obj 906 592 r \$0-server-answered;
#X obj 1058 608 r \$0-connected;
#X msg 1058 634 status \$1;
#X obj 958 657 outlet;
#X msg 906 618 found bang;
#X obj 561 146 pack 0 s s 3840;
#X obj 696 59 r \$0-port;
#X obj 30 560 route server call-name onoff block nchan 2x fifo port
;
#X obj 594 648 s \$0-port;
#X obj 1037 251 setctl \$0-port;
#X floatatom 81 179 5 0 0 0 - #0-port-set #0-port;
#X text 32 178 port;
#X msg 301 469 3840;
#X msg 30 386 \; \$1-onoff 0 \; \$1-fifo-size 50 \; \$1-server symbol
foo.ucsd.edu \; \$1-call-name symbol this-call-name \; \$1-block 64
\; \$1-nchan 2 \; \$1-port 3840 \;;
#X msg 561 171 peer \$2 \$4 \$3;
#X connect 0 0 71 0;
#X connect 0 0 81 0;
#X connect 0 1 75 0;
#X connect 0 2 136 0;
#X connect 1 0 74 0;
#X connect 4 0 0 0;
#X connect 5 0 0 1;
#X connect 25 0 27 0;
#X connect 26 0 158 0;
#X connect 27 0 26 0;
#X connect 30 0 150 0;
#X connect 30 1 45 0;
#X connect 31 0 150 1;
#X connect 32 0 150 2;
#X connect 33 0 34 0;
#X connect 34 0 35 0;
#X connect 34 0 47 0;
#X connect 35 0 34 1;
#X connect 36 0 38 0;
#X connect 38 0 40 0;
#X connect 38 0 34 0;
#X connect 39 0 40 0;
#X connect 40 0 41 0;
#X connect 40 0 42 0;
#X connect 41 0 40 1;
#X connect 42 0 46 0;
#X connect 45 0 0 2;
#X connect 50 0 152 0;
#X connect 52 0 53 0;
#X connect 54 0 55 0;
#X connect 56 0 57 0;
#X connect 57 0 58 0;
#X connect 61 0 62 0;
#X connect 62 0 0 2;
#X connect 64 0 65 0;
#X connect 64 1 63 0;
#X connect 65 0 66 0;
#X connect 69 1 39 0;
#X connect 70 0 0 0;
#X connect 72 0 76 0;
#X connect 72 0 75 1;
#X connect 72 0 81 1;
#X connect 73 0 3 0;
#X connect 74 0 78 0;
#X connect 74 1 79 0;
#X connect 75 0 73 0;
#X connect 76 0 77 0;
#X connect 77 0 73 1;
#X connect 77 0 80 1;
#X connect 78 0 72 0;
#X connect 79 0 72 0;
#X connect 80 0 2 0;
#X connect 81 0 80 0;
#X connect 82 0 0 2;
#X connect 98 0 120 0;
#X connect 98 1 100 0;
#X connect 99 0 1 0;
#X connect 99 1 48 0;
#X connect 99 2 64 0;
#X connect 99 3 98 0;
#X connect 99 4 103 0;
#X connect 103 0 118 0;
#X connect 103 1 109 0;
#X connect 104 0 105 0;
#X connect 105 0 106 0;
#X connect 105 1 107 0;
#X connect 105 2 108 0;
#X connect 106 0 115 0;
#X connect 107 0 115 0;
#X connect 108 0 115 0;
#X connect 111 0 0 2;
#X connect 114 0 82 0;
#X connect 117 0 30 0;
#X connect 118 0 110 0;
#X connect 119 0 111 0;
#X connect 120 0 101 0;
#X connect 121 0 0 2;
#X connect 136 0 69 0;
#X connect 136 0 99 0;
#X connect 136 1 33 0;
#X connect 136 2 33 0;
#X connect 136 3 33 0;
#X connect 136 4 44 0;
#X connect 136 5 60 0;
#X connect 136 6 56 0;
#X connect 136 6 49 0;
#X connect 136 7 137 0;
#X connect 136 8 51 0;
#X connect 137 0 139 0;
#X connect 137 1 138 0;
#X connect 140 0 121 0;
#X connect 145 0 149 0;
#X connect 146 0 147 0;
#X connect 147 0 148 0;
#X connect 149 0 148 0;
#X connect 150 0 159 0;
#X connect 151 0 150 3;
#X connect 152 0 52 0;
#X connect 152 1 54 0;
#X connect 152 2 143 0;
#X connect 152 3 112 0;
#X connect 152 4 113 0;
#X connect 152 5 134 0;
#X connect 152 6 144 0;
#X connect 152 8 153 0;
#X connect 157 0 152 0;
#X connect 159 0 0 2;
#X coords 0 -1 1 1 300 300 1 20 50;
